<!DOCTYPE svg PUBLIC "-//W3C//DTD SVG 1.1//EN" "http://www.w3.org/Graphics/SVG/1.1/DTD/svg11.dtd">
<!-- Uploaded to: SVG Repo, www.svgrepo.com, Transformed by: SVG Repo Mixer Tools -->
<svg fill="#262626" version="1.1" id="Capa_1" xmlns="http://www.w3.org/2000/svg" xmlns:xlink="http://www.w3.org/1999/xlink" width="64px" height="64px" viewBox="0 0 488.307 488.307" xml:space="preserve" stroke="#262626">
<g id="SVGRepo_bgCarrier" stroke-width="0"/>
<g id="SVGRepo_tracerCarrier" stroke-linecap="round" stroke-linejoin="round"/>
<g id="SVGRepo_iconCarrier"> <g> <path d="M482.387,260.699l-109.834-68c-4.035-2.499-9.139-2.495-13.172,0.007l-109.566,68c-3.675,2.28-5.91,6.297-5.91,10.621 v12.682c0,6.371,4.767,11.629,10.928,12.402v119.189c0,6.902,5.597,12.5,12.5,12.5h70.94c6.904,0,12.5-5.598,12.5-12.5v-45.337 h30.664v45.337c0,6.902,5.598,12.5,12.5,12.5h70.941c6.902,0,12.5-5.598,12.5-12.5V296.411c6.16-0.773,10.928-6.031,10.928-12.402 v-12.682C488.307,266.998,486.068,262.978,482.387,260.699z M452.379,284.008v119.093h-45.939v-45.337 c0-6.902-5.596-12.5-12.5-12.5h-55.666c-6.904,0-12.5,5.598-12.5,12.5v45.337h-45.94V284.008c0-3.896-1.783-7.377-4.577-9.669 l90.725-56.306l90.963,56.316C454.156,276.643,452.379,280.118,452.379,284.008z"/> <path d="M106.87,284.979v-45.336h30.664v45.336c0,6.902,5.597,12.5,12.5,12.5h70.942c6.904,0,12.5-5.598,12.5-12.5V165.79 c6.161-0.772,10.927-6.031,10.927-12.402v-12.683c0-4.329-2.24-8.35-5.92-10.628L128.649,62.078 c-4.037-2.499-9.139-2.495-13.171,0.007L5.909,130.084C2.235,132.364,0,136.381,0,140.705v12.683 c0,6.371,4.766,11.629,10.927,12.402v119.19c0,6.902,5.596,12.5,12.5,12.5h70.942C101.273,297.479,106.87,291.882,106.87,284.979z M81.87,227.143v45.336H35.928V153.387c0-3.896-1.783-7.377-4.578-9.669l90.727-56.306l90.964,56.315 c-2.788,2.293-4.565,5.769-4.565,9.659v119.093h-45.942v-45.335c0-6.903-5.596-12.5-12.5-12.5H94.37 C87.466,214.643,81.87,220.24,81.87,227.143z"/> </g> </g>
</svg>