<!DOCTYPE svg PUBLIC "-//W3C//DTD SVG 1.1//EN" "http://www.w3.org/Graphics/SVG/1.1/DTD/svg11.dtd">
<!-- Uploaded to: SVG Repo, www.svgrepo.com, Transformed by: SVG Repo Mixer Tools -->
<svg fill="#262626" height="64px" width="64px" version="1.1" id="Layer_1" xmlns="http://www.w3.org/2000/svg" xmlns:xlink="http://www.w3.org/1999/xlink" viewBox="0 0 512 512" xml:space="preserve" stroke="#262626">
<g id="SVGRepo_bgCarrier" stroke-width="0"/>
<g id="SVGRepo_tracerCarrier" stroke-linecap="round" stroke-linejoin="round" stroke="#2626266262" stroke-width="12.288"> <g> <g> <path d="M511.928,460.58l-18.286-146.285c-0.571-4.576-4.464-8.009-9.072-8.009h-36.571V59.429h45.714V41.144h-45.714h-18.286 H265.143h-18.286H82.286H64.001H18.286v18.286h45.714v246.856H27.429c-4.607,0-8.5,3.433-9.071,8.009L0.072,460.58 c-0.331,2.603,0.482,5.219,2.214,7.183c1.741,1.969,4.232,3.094,6.857,3.094h128c2.625,0,5.116-1.125,6.857-3.094 c1.732-1.964,2.545-4.58,2.214-7.183l-18.286-146.285c-0.571-4.576-4.464-8.009-9.071-8.009H82.286V59.429h164.571v246.856 h-36.571c-4.607,0-8.5,3.433-9.071,8.009L182.929,460.58c-0.331,2.603,0.482,5.219,2.214,7.183 c1.741,1.969,4.232,3.094,6.857,3.094h128c2.625,0,5.116-1.125,6.857-3.094c1.732-1.964,2.545-4.58,2.214-7.183l-18.286-146.285 c-0.571-4.576-4.464-8.009-9.072-8.009h-36.571V59.429h164.571v246.856h-36.571c-4.607,0-8.5,3.433-9.071,8.009L365.785,460.58 c-0.331,2.603,0.482,5.219,2.214,7.183c1.741,1.969,4.232,3.094,6.857,3.094h128c2.625,0,5.116-1.125,6.857-3.094 C511.445,465.798,512.258,463.182,511.928,460.58z M110.786,324.571l16,128H19.501l16-128H110.786z M293.643,324.571l16,128 H202.357l16-128H293.643z M385.214,452.571l16-128h75.285l16,128H385.214z"/> </g> </g> </g>
<g id="SVGRepo_iconCarrier"> <g> <g> <path d="M511.928,460.58l-18.286-146.285c-0.571-4.576-4.464-8.009-9.072-8.009h-36.571V59.429h45.714V41.144h-45.714h-18.286 H265.143h-18.286H82.286H64.001H18.286v18.286h45.714v246.856H27.429c-4.607,0-8.5,3.433-9.071,8.009L0.072,460.58 c-0.331,2.603,0.482,5.219,2.214,7.183c1.741,1.969,4.232,3.094,6.857,3.094h128c2.625,0,5.116-1.125,6.857-3.094 c1.732-1.964,2.545-4.58,2.214-7.183l-18.286-146.285c-0.571-4.576-4.464-8.009-9.071-8.009H82.286V59.429h164.571v246.856 h-36.571c-4.607,0-8.5,3.433-9.071,8.009L182.929,460.58c-0.331,2.603,0.482,5.219,2.214,7.183 c1.741,1.969,4.232,3.094,6.857,3.094h128c2.625,0,5.116-1.125,6.857-3.094c1.732-1.964,2.545-4.58,2.214-7.183l-18.286-146.285 c-0.571-4.576-4.464-8.009-9.072-8.009h-36.571V59.429h164.571v246.856h-36.571c-4.607,0-8.5,3.433-9.071,8.009L365.785,460.58 c-0.331,2.603,0.482,5.219,2.214,7.183c1.741,1.969,4.232,3.094,6.857,3.094h128c2.625,0,5.116-1.125,6.857-3.094 C511.445,465.798,512.258,463.182,511.928,460.58z M110.786,324.571l16,128H19.501l16-128H110.786z M293.643,324.571l16,128 H202.357l16-128H293.643z M385.214,452.571l16-128h75.285l16,128H385.214z"/> </g> </g> </g>
</svg>